/* XPM */
static char *sprite_01[] = {
/* columns rows colors chars-per-pixel */
"128 128 63 1 ",
"  c None",
". c black",
"X c #070000",
"o c #0B0000",
"O c #0F0000",
"+ c #1B0700",
"@ c gray12",
"# c #230B00",
"$ c #2B1700",
"% c #2B230F",
"& c #3B2F17",
"* c #232323",
"= c #2F2F2F",
"- c #373737",
"; c gray23",
": c #43331B",
"> c #4B3B1B",
", c #573F1F",
"< c #5F4323",
"1 c #6F4B27",
"2 c #774F2B",
"3 c #434343",
"4 c #4B4B4B",
"5 c gray34",
"6 c #5B5B5B",
"7 c #676767",
"8 c gray45",
"9 c #7B7B7B",
"0 c gray50",
"q c #83532F",
"w c #875333",
"e c #8B5B33",
"r c #935F37",
"t c #9F633B",
"y c #A3673F",
"u c #AB6B43",
"i c #B77347",
"p c #BF7B4B",
"a c #C3774B",
"s c #CB7F4F",
"d c #D38353",
"f c #DF8B57",
"g c #EB8F5B",
"h c #F3975F",
"j c #FF9F63",
"k c #EBA377",
"l c #FFA773",
"z c gray56",
"x c #9B9B9B",
"c c gray67",
"v c #B7B7B7",
"b c #BBBBBB",
"n c #FFB383",
"m c #EFBB9B",
"M c #FFBB93",
"N c #FFBF9F",
"B c #FFC7A7",
"V c #FFCFB3",
"C c #C3C3C3",
"Z c LightGray",
"A c #DFDFDF",
"S c #EFEFEF",
"D c white",
/* pixels */
"                                                                                                                                ",
"                                                                                                                                ",
"                                                                                                                                ",
"                                                                                                                                ",
"                                                                                                                                ",
"                                                                                                                                ",
"                                                                                                                                ",
"                                                                                                                                ",
"                                                                                                                                ",
"                                                                                                                                ",
"                                                                                                                                ",
"                                                                                                                                ",
"                                                                                                                                ",
"                                                                                                                                ",
"                                                                                                                                ",
"                                                                                                                                ",
"                                                                                                                                ",
"                                                                                                                                ",
"                                                                                                                                ",
"                                                                                                                                ",
"                                                                                                                                ",
"                                                                                                                                ",
"                                                                                                                                ",
"                                                                                                                                ",
"                                                                                                                                ",
"                                                                                                                                ",
"                                                                                                                                ",
"                                                                                                                                ",
"                                                                                                                                ",
"                                                                                                                                ",
"                                                                                                                                ",
"                                                                                                                                ",
"                                                                                                                                ",
"                                                                                                                                ",
"                                                                                                                                ",
"                                                                                                                                ",
"                                                                                                                                ",
"                                                                                                                                ",
"                                                                                                                                ",
"                                                                                                                                ",
"                                                                                                                                ",
"                                                                                                                                ",
"                                                                 0                                                              ",
"                                                                 -                                                              ",
"                                                               *>@oo                                                            ",
"                                                             *487%*%%@                                                          ",
"                                                            *37z7%*;-%@                                                         ",
"                                                            -64;--;;==%                                                         ",
"                                                           *-3&%@@@%%%%@                                                        ",
"                                                           *3-*....@O%%@                                                        ",
"                                                           ==*;-3;@%%..%                                                        ",
"                                                           -%-8564*%=%O.                                                        ",
"                                                           *=4z854=%=-%.                                                        ",
"                                                           @46v964-%=;%O                                                        ",
"                                                           %47xv,40<%;%O                                                        ",
"                                                           -498..;..%=%O                                                        ",
"                                                        ---=;4=......%%%===                                                     ",
"                                                       -%@*-86*......-=%-*@=                                                    ",
"                                                       -*-@8Zcxv74**%%=%=4%=                                                    ",
"                                                     -68A-@60xz84-@@@@%%=6;=                                                    ",
"                                                     ::>=:;0vZx05;**@.@=37*7-                                                   ",
"                                                     .@@=@4zAx3........@;4*=@;                                                  ",
"                                                     @@3x*4zZ3v65;=%%O..*;@@@=                                                  ",
"                                                     **=7-3xv.8;-=%O@*..o%*.@%                                                  ",
"                                                    *3-@3*-0v.6%%O...@..o%%@@%                                                  ",
"                                                    *@*@.*37z@-......@..oo%@@O                                                  ",
"                                                    qq>@@=577=..........#%...pjjjjjf                                            ",
"                                                   qrr*-**x85=.........##%...ujjnnnlf                                           ",
"                                                  qryy:@@@Cx863--=.....#%=@..esdgnnnj                                           ",
"                                                 qryp**6=@Z05;=**%....##%-...,eysnNNn                                           ",
"                                                ryips=:@@+c73-**O....#$%%=...:<wgnNNnf                                          ",
"                                               ryisdf*404@454;=**o.#$%%%=*...%>1gnNNnf                                          ",
"                                               ryisdf&@*-+&674<<:&%%%%%=%@...%>1gnNNnl                                          ",
"                                               yuipsft:%==+*>48544;-&&%O@o..@%2uhhBBNlf                                         ",
"                                              rryuflnjit.364=..............%%2pfjBBVBnl                                         ",
"                                              ryyfnllllft*68c**-.*.......ei22pdnMnljMMlf                                        ",
"                                             rryfnnljjnnht@*x*4x@;.X....esie2plnnlljlnlf                                        ",
"                                             rrujnlhggjlnjr,@%-4.4.....esiyqpnnnlhhgfghjs                                       ",
"                                             ruflhgdddghlljr,>%&@...+eiiuqqsnnlhhffsppfhs                                       ",
"                                            tpfdhgdsssffhlnlfr,%%%1qiiutqyfNNlhhgddsiipfs                                       ",
"                                            psdiidiypsffgjlnNNhuwwiuurrqsdNnlhhgddddsiisu                                       ",
"                                            fhfredyruppggjnnhdhluwwwwwshdnnlhfddpssdsiiut                                       ",
"                                            eiie1e,qquipgjnhppdflhdpyyshnlhgddspiipsiiute                                       ",
"                                           et111>%,2qqrifjjpiisdhjljhffffddssspiiipiuureqq                                      ",
"                                           eyeq>%&%2tqqtdhgpiipsfhhjlljhfsppiiiiipiuutrqqq                                      ",
"                                          eeytrq<>:&%tqrdgfdpiiisdfhhllljfdsiiiiiiuytrqqq1                                      ",
"                                          eyippu2<>:&%rrpfggfpiiipsdfffffffdsppppuytreqeq<                                      ",
"                                          eypsdpt2<,,:wrigjhgfiiiiiiissssssddsspiytreqq21<                                      ",
"                                         eydfhhgst21<<:tugljhgpiuuuuiiiiippssffgstreqqe1<                                       ",
"                                         edfhhjlhdatq1<wydjljhsputttyyuiiiipsshjhsyqqeq1<                                       ",
"                                         yfhlllllhdat2<>tshnljdatrrryyuuiiiiipsgfdsyee1<<                                       ",
"                                        edllnnllljgdar1>wphnnjdpteeryyuuipiipppsfaipyq1<<                                       ",
"                                        phnnnnnnljgfaur,<ignnldieqweryuuisapsdfffkdyte<<                                        ",
"                                       yhMMMMMnnnnljdauw>wajljfieqqqwetyppppsdffhjkndy1<                                        ",
"                                      AASSSSSSZnnnnlfduw<<udjjfieq222wypsfffggghhhjlndq,                                        ",
"                                    SAZZZZSSSSASSZMnkfsw1>wusfdire11ruipfghhhjjjjjjjlmd>                                        ",
"                                   DAAAZCZASSAZZbbZCcdyr11<2ipsiuq12ysdfgjllllllllllllmd                                        ",
"                                  SDSAZCCZASAZZCbbcvcvxr1<,&etiiuq1<qigkkkllllkkCASSSSSSZZ                                      ",
"                                 DDSAZCCCZASZZCbbbcxz0000,&&:,ettw1&,rpdfgkkkCASCCCZASSCCZAS                                    ",
"                                SDSAZCbbCZSAZCbbbbcxz987775&   <<,1,:1eaaddZZvvvbbbCZASZCCZAS                                   ",
"                               DSAAZCCbCZASZCbbbbcxz09874454     <,1&,1eyCcxzxcvbbbbCZASZCCZAS                                  ",
"                              vSSAZCbbbCZSAZbbbbbcxz09874;;;      ,,,:<0z0899zxcvbbbbCZASZCCZAS                                 ",
"                              vAAZCbbbCZASZCbbbbcxz999764=*=       ,1&07578999zxcvbbbbCZASZCCZAS                                ",
"                             xvvCCbbCZZZSAZbbbbbcxz998754**=        ,74;4788999zxcvbbbbCZASZCCZAS                               ",
"                             xcvCbbbbbCZZAZbbbbcxz099874;**=        ;4==47789990zxcvbbbbCZASZCCZAS                              ",
"                            8007778zzxcbbCCbbbbcxz099774;**=        ;===;6678999zzxcbvbbbCZAAZCZZAS                             ",
"                           807754444578zxccvbbcxz9998754=*=         ;@==;56789990zzxcvbbbbCZACCvvCA                             ",
"                         80087774;;;;4579zxcvcxz0999764;**=         ;@@=;457789990zzxcvvbcxzzzzzzzbb                            ",
"                        8z09zzzz974;44457889zxx09998764;**=         ;@@=;4567899990zzxxzz987777778zcb                           ",
"                       8z98zzxxxxz97578077788999998875==**=         ;@@=;45678899990zz087777777890ccZb                          ",
"                       zz80zxcbbcxz970zxxx97678889876=75;*=         ;@*=4456778899988877778999880xcZZZb                         ",
"                      8x9770zxcbbcxz880xbccx5@6678854=54;=          ;;57=445677777777909zzz008766657xZZb                        ",
"                      xz754580xxcbbxz080cbbZ85@76654;=;;*=          ;;55=;44566666700cZSSAbxz0876644470xb                       ",
"                      xz54445790zxcbczz0xbbAx8@@5544;=***=          ;@;;==;;4654;79cZDSb0775566666654;70x                       ",
"                      z744;;7998788xccz70bSZc94=;44;==**@=          ;@@**==;44;=49cZSb0775566678997544;7z                       ",
"                     bz74;;;47788878zz0570xbvx7=@@;;==**@=          ;@@**==;;@@=7xvbx0754446788877544457zb                      ",
"                    bz854;;;45567888788;4579xx84=@====**@=          ;@@**====@=48xx9754;;4788876555555558zb                     ",
"                   Dcz08554;;;4557800074;4579zz6==@=;=*@@;           ;@@*=;=@==6zz9754;470008755555555580zcD                    ",
"                  DZcxz008755;;45578zzz07;;579z84==@=;=@;             ;@=;=@==48z975;;70zzz8755555557800zxcZD                   ",
"                 DAACcxzz098755445570zxxx06;57996;==@=;;               ;;=@==;69975;60xxxz075555557890zzxcCAAD                  ",
"                 SAAZZZACxz97765545578zcccc057896;;==@;                 ;@==;;698750ccccz87555556779zxCAZZZAAS                  ",
"                bSCx79zxCZCcz9776555578zcvvb05706;;==@;                 ;@==;;60750bvvcz8755556779zcCZCxz97xCSb                 ",
"                bAc44780xxcCvx98767555000zCCbc575;;==@;                 ;@==;;575cbCCcz8755556789xvCcxx08744cAb                 ",
"                CAx;457789xccbx9876875578000zCc74;;==@;                 ;@==;;47cCCCcz8755556789xbccx987754;xAC                 ",
"                CAz;;457780xccbx976708557887;0xx6;;==@;                 ;@==;;6cZvCbz8755556679xbccx087754;;zAC                 ",
"               bAc0478875780xcbc08770x0558085;7876;;=@;                 ;@=;;6cCvcbx08555566780cbcx0875788740cAb                ",
"              bSAx80zzz07478xxccz9778xx0578z7;;5776;=@;                 ;@=;60vZzxcz8755555679zccxx87470zzz08xASb               ",
"             bSAczzcvvvx0780xccxz9878xCx5780x5=;577;=@;                 ;@=;7xZv0zx08755456789zxccx0870xvvvczzcASb              "
};
